<?xml version="1.0" encoding="iso-8859-1"?>
<!-- Generator: Adobe Illustrator 19.0.0, SVG Export Plug-In . SVG Version: 6.00 Build 0)  -->
<svg version="1.1" id="Capa_1" xmlns="http://www.w3.org/2000/svg" xmlns:xlink="http://www.w3.org/1999/xlink" x="0px" y="0px"
	 viewBox="0 0 512 512" style="enable-background:new 0 0 512 512;" xml:space="preserve">
<g>
	<g>
		<g>
			<path d="M277.333,192H42.667C19.146,192,0,211.135,0,234.667v234.667C0,492.865,19.146,512,42.667,512h234.667
				C300.854,512,320,492.865,320,469.333V234.667C320,211.135,300.854,192,277.333,192z M138.667,234.667
				c5.891,0,10.667,4.775,10.667,10.667c0,5.891-4.776,10.667-10.667,10.667S128,251.224,128,245.333
				C128,239.441,132.776,234.667,138.667,234.667z M96,234.667c5.891,0,10.667,4.775,10.667,10.667
				c0,5.891-4.776,10.667-10.667,10.667s-10.667-4.776-10.667-10.667C85.333,239.441,90.109,234.667,96,234.667z M53.333,234.667
				c5.891,0,10.667,4.775,10.667,10.667C64,251.224,59.224,256,53.333,256s-10.667-4.776-10.667-10.667
				C42.667,239.441,47.443,234.667,53.333,234.667z M277.333,469.333H42.667V298.667h234.667V469.333z"/>
			<path d="M469.333,0h-384C61.813,0,42.667,19.135,42.667,42.667V160c0,5.896,4.771,10.667,10.667,10.667h224
				c35.292,0,64,28.708,64,64v224c0,5.896,4.771,10.667,10.667,10.667h117.333c23.521,0,42.667-19.135,42.667-42.667v-384
				C512,19.135,492.854,0,469.333,0z M405.333,149.333c0,5.896-4.771,10.667-10.667,10.667S384,155.229,384,149.333v-6.25
				l-24.458,24.458c-2.083,2.083-4.813,3.125-7.542,3.125c-2.729,0-5.458-1.042-7.542-3.125c-4.167-4.167-4.167-10.917,0-15.083
				L368.917,128h-6.25c-5.896,0-10.667-4.771-10.667-10.667c0-5.896,4.771-10.667,10.667-10.667h32
				c5.896,0,10.667,4.771,10.667,10.667V149.333z"/>
		</g>
	</g>
</g>
<g>
</g>
<g>
</g>
<g>
</g>
<g>
</g>
<g>
</g>
<g>
</g>
<g>
</g>
<g>
</g>
<g>
</g>
<g>
</g>
<g>
</g>
<g>
</g>
<g>
</g>
<g>
</g>
<g>
</g>
</svg>
